<svg width="902" height="310" viewBox="0 0 902 310" fill="none" xmlns="http://www.w3.org/2000/svg">
<path fill-rule="evenodd" clip-rule="evenodd" d="M142.061 57.5919H66.0637C48.13 57.5919 33.5919 72.13 33.5919 90.0637V138.704H0.000137329V172.296L0 172.296V138.704V90.0637C0 53.5778 29.5777 24 66.0637 24H142.061C183.011 24 216.209 57.1972 216.209 98.148C216.209 117.192 209.029 134.558 197.23 147.69C220.307 160.257 235.968 184.726 235.968 212.852C235.968 253.803 202.77 287 161.82 287H72.1013C32.2809 287 0.000137329 254.719 0.000137329 214.899V172.297H33.592V214.899C33.592 236.167 50.8332 253.408 72.1013 253.408H161.82C184.218 253.408 202.376 235.25 202.376 212.852C202.376 190.454 184.218 172.296 161.82 172.296L142.061 172.296L52.626 172.296V138.704H142.061C164.459 138.704 182.617 120.546 182.617 98.148C182.617 75.7495 164.459 57.5919 142.061 57.5919Z" fill="#01A4FF"/>
<circle cx="133.551" cy="214.081" r="15.567" fill="#01A4FF"/>
<path d="M386.026 94.4247V127.117H404.08C409.773 127.117 414.164 125.734 417.255 122.969C420.508 120.204 422.134 116.138 422.134 110.771C422.134 105.403 420.508 101.337 417.255 98.5722C414.164 95.8072 409.773 94.4247 404.08 94.4247H386.026ZM346.503 213.238V79.0545C346.503 72.7113 348.455 67.8318 352.358 64.4163C356.425 61.0007 361.06 59.2929 366.265 59.2929H412.863C420.345 59.2929 427.095 60.4314 433.113 62.7085C439.131 64.8229 444.254 67.9132 448.483 71.9793C452.712 75.8829 455.965 80.681 458.242 86.3736C460.519 91.9036 461.657 98.0029 461.657 104.671C461.657 109.063 460.925 113.048 459.462 116.626C458.16 120.204 456.453 123.376 454.338 126.141C452.386 128.906 450.191 131.264 447.751 133.216C445.311 135.005 443.034 136.55 440.92 137.851C451.655 139.966 460.112 144.927 466.293 152.734C472.636 160.378 475.808 169.649 475.808 180.546C475.808 187.377 474.669 193.965 472.392 200.308C470.115 206.651 466.537 212.262 461.657 217.142C456.778 222.021 450.516 225.925 442.872 228.852C435.227 231.617 426.038 233 415.303 233H366.265C361.06 233 356.425 231.292 352.358 227.877C348.455 224.461 346.503 219.582 346.503 213.238ZM386.026 162.248V197.868H410.911C417.58 197.868 423.191 196.567 427.745 193.965C432.462 191.2 434.821 186.564 434.821 180.058C434.821 176.805 434.089 174.04 432.625 171.763C431.324 169.486 429.535 167.697 427.257 166.396C424.98 164.932 422.378 163.875 419.45 163.224C416.685 162.574 413.839 162.248 410.911 162.248H386.026ZM489.659 214.702V121.505C489.659 115.975 491.366 111.34 494.782 107.599C498.36 103.696 502.996 101.744 508.688 101.744C514.381 101.744 518.935 103.696 522.351 107.599C525.929 111.34 527.718 115.975 527.718 121.505V214.702C527.718 220.232 525.929 224.949 522.351 228.852C518.935 232.593 514.381 234.464 508.688 234.464C502.996 234.464 498.36 232.593 494.782 228.852C491.366 224.949 489.659 220.232 489.659 214.702ZM485.999 67.8318C485.999 64.5789 486.568 61.6513 487.707 59.0489C489.008 56.2839 490.635 53.8442 492.586 51.7298C494.701 49.6154 497.14 47.9889 499.905 46.8504C502.67 45.7118 505.598 45.1426 508.688 45.1426C511.779 45.1426 514.706 45.7118 517.471 46.8504C520.236 47.9889 522.595 49.6154 524.546 51.7298C526.661 53.8442 528.287 56.2839 529.426 59.0489C530.727 61.6513 531.378 64.5789 531.378 67.8318C531.378 70.9221 530.727 73.8498 529.426 76.6148C528.287 79.3798 526.661 81.8195 524.546 83.9339C522.595 86.0483 520.236 87.6748 517.471 88.8133C514.706 89.9519 511.779 90.5211 508.688 90.5211C505.598 90.5211 502.67 89.9519 499.905 88.8133C497.14 87.6748 494.701 86.0483 492.586 83.9339C490.635 81.8195 489.008 79.3798 487.707 76.6148C486.568 73.8498 485.999 70.9221 485.999 67.8318ZM543.742 214.702V64.9042C543.742 59.3742 545.45 54.7387 548.865 50.9979C552.444 47.0943 557.079 45.1426 562.772 45.1426C568.464 45.1426 573.019 47.0943 576.434 50.9979C580.012 54.7387 581.801 59.3742 581.801 64.9042V214.702C581.801 220.232 580.012 224.949 576.434 228.852C573.019 232.593 568.464 234.464 562.772 234.464C557.079 234.464 552.444 232.593 548.865 228.852C545.45 224.949 543.742 220.232 543.742 214.702ZM657.598 99.3041C667.194 99.3041 675.896 101.093 683.703 104.671C691.673 108.25 698.423 113.129 703.953 119.31C709.645 125.49 714.037 132.809 717.127 141.267C720.217 149.562 721.762 158.508 721.762 168.104C721.762 177.7 720.217 186.727 717.127 195.185C714.037 203.48 709.645 210.717 703.953 216.898C698.423 223.079 691.673 227.958 683.703 231.536C675.896 235.114 667.194 236.904 657.598 236.904C648.002 236.904 639.219 235.114 631.249 231.536C623.442 227.958 616.692 223.079 611 216.898C605.47 210.717 601.16 203.48 598.069 195.185C594.979 186.727 593.434 177.7 593.434 168.104C593.434 158.508 594.979 149.562 598.069 141.267C601.16 132.809 605.47 125.49 611 119.31C616.692 113.129 623.442 108.25 631.249 104.671C639.219 101.093 648.002 99.3041 657.598 99.3041ZM657.598 135.9C653.369 135.9 649.628 136.794 646.376 138.583C643.123 140.21 640.358 142.487 638.081 145.415C635.966 148.342 634.34 151.758 633.201 155.661C632.063 159.565 631.493 163.712 631.493 168.104C631.493 172.495 632.063 176.643 633.201 180.546C634.34 184.45 635.966 187.865 638.081 190.793C640.358 193.721 643.123 196.079 646.376 197.868C649.628 199.495 653.369 200.308 657.598 200.308C661.827 200.308 665.568 199.495 668.821 197.868C672.074 196.079 674.757 193.721 676.872 190.793C679.149 187.865 680.857 184.45 681.995 180.546C683.134 176.643 683.703 172.495 683.703 168.104C683.703 163.712 683.134 159.565 681.995 155.661C680.857 151.758 679.149 148.342 676.872 145.415C674.757 142.487 672.074 140.21 668.821 138.583C665.568 136.794 661.827 135.9 657.598 135.9ZM734.123 214.702V64.9042C734.123 59.3742 735.831 54.7387 739.246 50.9979C742.825 47.0943 747.46 45.1426 753.153 45.1426C758.845 45.1426 763.399 47.0943 766.815 50.9979C770.393 54.7387 772.182 59.3742 772.182 64.9042V145.902L803.167 114.918C806.42 111.665 809.591 108.656 812.682 105.891C815.935 103.126 819.919 101.744 824.636 101.744C830.329 101.744 834.802 103.533 838.055 107.111C841.47 110.527 843.178 114.593 843.178 119.31C843.178 122.725 842.039 125.816 839.762 128.581C837.648 131.346 834.314 134.924 829.76 139.315L809.266 159.565L841.226 200.064C843.178 202.504 845.13 205.269 847.081 208.359C849.196 211.287 850.253 214.133 850.253 216.898C850.253 218.687 849.846 220.639 849.033 222.753C848.383 224.868 847.244 226.819 845.618 228.609C844.154 230.235 842.202 231.617 839.762 232.756C837.485 233.895 834.72 234.464 831.467 234.464C827.076 234.464 823.498 233.569 820.733 231.78C818.13 229.991 814.796 226.575 810.73 221.533L772.67 171.763H772.182V214.702C772.182 220.232 770.393 224.949 766.815 228.852C763.399 232.593 758.845 234.464 753.153 234.464C747.46 234.464 742.825 232.593 739.246 228.852C735.831 224.949 734.123 220.232 734.123 214.702ZM855.376 214.702V121.505C855.376 115.975 857.084 111.34 860.5 107.599C864.078 103.696 868.714 101.744 874.406 101.744C880.099 101.744 884.653 103.696 888.069 107.599C891.647 111.34 893.436 115.975 893.436 121.505V214.702C893.436 220.232 891.647 224.949 888.069 228.852C884.653 232.593 880.099 234.464 874.406 234.464C868.714 234.464 864.078 232.593 860.5 228.852C857.084 224.949 855.376 220.232 855.376 214.702ZM851.717 67.8318C851.717 64.5789 852.286 61.6513 853.425 59.0489C854.726 56.2839 856.352 53.8442 858.304 51.7298C860.419 49.6154 862.858 47.9889 865.623 46.8504C868.388 45.7118 871.316 45.1426 874.406 45.1426C877.496 45.1426 880.424 45.7118 883.189 46.8504C885.954 47.9889 888.312 49.6154 890.264 51.7298C892.379 53.8442 894.005 56.2839 895.144 59.0489C896.445 61.6513 897.095 64.5789 897.095 67.8318C897.095 70.9221 896.445 73.8498 895.144 76.6148C894.005 79.3798 892.379 81.8195 890.264 83.9339C888.312 86.0483 885.954 87.6748 883.189 88.8133C880.424 89.9519 877.496 90.5211 874.406 90.5211C871.316 90.5211 868.388 89.9519 865.623 88.8133C862.858 87.6748 860.419 86.0483 858.304 83.9339C856.352 81.8195 854.726 79.3798 853.425 76.6148C852.286 73.8498 851.717 70.9221 851.717 67.8318Z" fill="#1D1D1D"/>
</svg>