<svg xmlns="http://www.w3.org/2000/svg" xmlns:xlink="http://www.w3.org/1999/xlink" width="500" zoomAndPan="magnify" viewBox="0 0 375 374.999991" height="500" preserveAspectRatio="xMidYMid meet" version="1.0"><path fill="#ffffff" d="M 59.070312 147 L 27.476562 147 C 20.023438 147 13.976562 153.046875 13.976562 160.5 L 13.976562 180.722656 L 0.0117188 180.722656 L 0.0117188 194.6875 L 0.0117188 160.5 C 0.0117188 145.332031 12.308594 133.035156 27.476562 133.035156 L 59.070312 133.035156 C 76.09375 133.035156 89.894531 146.835938 89.894531 163.859375 C 89.894531 171.777344 86.910156 178.996094 82.003906 184.457031 C 91.597656 189.679688 98.109375 199.851562 98.109375 211.546875 C 98.109375 228.570312 84.308594 242.371094 67.285156 242.371094 L 29.988281 242.371094 C 13.433594 242.371094 0.0117188 228.949219 0.0117188 212.394531 L 0.0117188 194.6875 L 13.976562 194.6875 L 13.976562 212.394531 C 13.976562 221.238281 21.144531 228.40625 29.988281 228.40625 L 67.285156 228.40625 C 76.59375 228.40625 84.144531 220.855469 84.144531 211.546875 C 84.144531 202.234375 76.59375 194.6875 67.285156 194.6875 L 21.890625 194.6875 L 21.890625 180.722656 L 59.070312 180.722656 C 68.382812 180.722656 75.929688 173.171875 75.929688 163.859375 C 75.929688 154.550781 68.382812 147 59.070312 147 Z M 59.070312 147 " fill-opacity="1" fill-rule="evenodd"/><path fill="#ffffff" d="M 62.003906 212.054688 C 62.003906 212.480469 61.960938 212.902344 61.878906 213.320312 C 61.796875 213.734375 61.671875 214.140625 61.511719 214.53125 C 61.347656 214.925781 61.148438 215.296875 60.914062 215.652344 C 60.675781 216.003906 60.410156 216.332031 60.109375 216.632812 C 59.808594 216.933594 59.480469 217.199219 59.128906 217.4375 C 58.773438 217.671875 58.402344 217.871094 58.007812 218.035156 C 57.617188 218.199219 57.210938 218.320312 56.792969 218.402344 C 56.378906 218.484375 55.957031 218.527344 55.53125 218.527344 C 55.105469 218.527344 54.6875 218.484375 54.269531 218.402344 C 53.851562 218.320312 53.449219 218.199219 53.054688 218.035156 C 52.664062 217.871094 52.289062 217.671875 51.9375 217.4375 C 51.582031 217.199219 51.257812 216.933594 50.957031 216.632812 C 50.65625 216.332031 50.386719 216.003906 50.152344 215.652344 C 49.914062 215.296875 49.714844 214.925781 49.554688 214.53125 C 49.390625 214.140625 49.269531 213.734375 49.183594 213.320312 C 49.101562 212.902344 49.0625 212.480469 49.0625 212.054688 C 49.0625 211.632812 49.101562 211.210938 49.183594 210.792969 C 49.269531 210.375 49.390625 209.972656 49.554688 209.578125 C 49.714844 209.1875 49.914062 208.8125 50.152344 208.460938 C 50.386719 208.109375 50.65625 207.78125 50.957031 207.480469 C 51.257812 207.179688 51.582031 206.910156 51.9375 206.675781 C 52.289062 206.4375 52.664062 206.238281 53.054688 206.078125 C 53.449219 205.914062 53.851562 205.792969 54.269531 205.710938 C 54.6875 205.625 55.105469 205.585938 55.53125 205.585938 C 55.957031 205.585938 56.378906 205.625 56.792969 205.710938 C 57.210938 205.792969 57.617188 205.914062 58.007812 206.078125 C 58.402344 206.238281 58.773438 206.4375 59.128906 206.675781 C 59.480469 206.910156 59.808594 207.179688 60.109375 207.480469 C 60.410156 207.78125 60.675781 208.109375 60.914062 208.460938 C 61.148438 208.8125 61.347656 209.1875 61.511719 209.578125 C 61.671875 209.972656 61.796875 210.375 61.878906 210.792969 C 61.960938 211.210938 62.003906 211.632812 62.003906 212.054688 Z M 62.003906 212.054688 " fill-opacity="1" fill-rule="nonzero"/><path fill="#ffffff" d="M 160.488281 162.3125 L 160.488281 175.902344 L 167.996094 175.902344 C 170.363281 175.902344 172.1875 175.328125 173.472656 174.179688 C 174.824219 173.03125 175.5 171.339844 175.5 169.109375 C 175.5 166.878906 174.824219 165.1875 173.472656 164.039062 C 172.1875 162.886719 170.363281 162.3125 167.996094 162.3125 Z M 144.058594 211.707031 L 144.058594 155.925781 C 144.058594 153.285156 144.871094 151.257812 146.492188 149.839844 C 148.183594 148.417969 150.109375 147.707031 152.273438 147.707031 L 171.644531 147.707031 C 174.757812 147.707031 177.5625 148.183594 180.0625 149.128906 C 182.566406 150.007812 184.695312 151.292969 186.453125 152.984375 C 188.210938 154.605469 189.5625 156.601562 190.511719 158.964844 C 191.457031 161.265625 191.929688 163.800781 191.929688 166.574219 C 191.929688 168.398438 191.625 170.054688 191.019531 171.542969 C 190.476562 173.03125 189.765625 174.347656 188.886719 175.5 C 188.074219 176.648438 187.164062 177.628906 186.148438 178.441406 C 185.136719 179.183594 184.1875 179.824219 183.308594 180.367188 C 187.773438 181.246094 191.289062 183.308594 193.859375 186.554688 C 196.496094 189.730469 197.8125 193.585938 197.8125 198.113281 C 197.8125 200.953125 197.339844 203.695312 196.394531 206.332031 C 195.445312 208.96875 193.957031 211.300781 191.929688 213.328125 C 189.902344 215.355469 187.296875 216.980469 184.121094 218.195312 C 180.941406 219.347656 177.121094 219.921875 172.660156 219.921875 L 152.273438 219.921875 C 150.109375 219.921875 148.183594 219.210938 146.492188 217.792969 C 144.871094 216.371094 144.058594 214.34375 144.058594 211.707031 Z M 160.488281 190.507812 L 160.488281 205.316406 L 170.835938 205.316406 C 173.605469 205.316406 175.9375 204.773438 177.832031 203.695312 C 179.792969 202.542969 180.773438 200.617188 180.773438 197.914062 C 180.773438 196.558594 180.46875 195.410156 179.859375 194.464844 C 179.320312 193.515625 178.578125 192.773438 177.628906 192.234375 C 176.683594 191.625 175.601562 191.183594 174.382812 190.914062 C 173.234375 190.644531 172.050781 190.507812 170.835938 190.507812 Z M 203.570312 212.3125 L 203.570312 173.570312 C 203.570312 171.273438 204.28125 169.34375 205.699219 167.789062 C 207.1875 166.167969 209.117188 165.355469 211.480469 165.355469 C 213.847656 165.355469 215.742188 166.167969 217.160156 167.789062 C 218.648438 169.34375 219.394531 171.273438 219.394531 173.570312 L 219.394531 212.3125 C 219.394531 214.613281 218.648438 216.574219 217.160156 218.195312 C 215.742188 219.75 213.847656 220.53125 211.480469 220.53125 C 209.117188 220.53125 207.1875 219.75 205.699219 218.195312 C 204.28125 216.574219 203.570312 214.613281 203.570312 212.3125 Z M 202.050781 151.257812 C 202.050781 149.90625 202.285156 148.6875 202.757812 147.605469 C 203.300781 146.457031 203.976562 145.445312 204.789062 144.566406 C 205.667969 143.6875 206.679688 143.007812 207.832031 142.535156 C 208.980469 142.0625 210.195312 141.828125 211.480469 141.828125 C 212.765625 141.828125 213.984375 142.0625 215.132812 142.535156 C 216.28125 143.007812 217.261719 143.6875 218.074219 144.566406 C 218.953125 145.445312 219.628906 146.457031 220.101562 147.605469 C 220.644531 148.6875 220.914062 149.90625 220.914062 151.257812 C 220.914062 152.542969 220.644531 153.761719 220.101562 154.910156 C 219.628906 156.058594 218.953125 157.074219 218.074219 157.953125 C 217.261719 158.832031 216.28125 159.507812 215.132812 159.980469 C 213.984375 160.453125 212.765625 160.691406 211.480469 160.691406 C 210.195312 160.691406 208.980469 160.453125 207.832031 159.980469 C 206.679688 159.507812 205.667969 158.832031 204.789062 157.953125 C 203.976562 157.074219 203.300781 156.058594 202.757812 154.910156 C 202.285156 153.761719 202.050781 152.542969 202.050781 151.257812 Z M 226.054688 212.3125 L 226.054688 150.042969 C 226.054688 147.742188 226.765625 145.816406 228.183594 144.261719 C 229.671875 142.636719 231.597656 141.828125 233.964844 141.828125 C 236.332031 141.828125 238.226562 142.636719 239.644531 144.261719 C 241.132812 145.816406 241.875 147.742188 241.875 150.042969 L 241.875 212.3125 C 241.875 214.613281 241.132812 216.574219 239.644531 218.195312 C 238.226562 219.75 236.332031 220.53125 233.964844 220.53125 C 231.597656 220.53125 229.671875 219.75 228.183594 218.195312 C 226.765625 216.574219 226.054688 214.613281 226.054688 212.3125 Z M 273.386719 164.34375 C 277.375 164.34375 280.992188 165.085938 284.238281 166.574219 C 287.550781 168.0625 290.355469 170.089844 292.65625 172.660156 C 295.023438 175.226562 296.847656 178.269531 298.132812 181.785156 C 299.417969 185.234375 300.058594 188.953125 300.058594 192.941406 C 300.058594 196.933594 299.417969 200.683594 298.132812 204.199219 C 296.847656 207.648438 295.023438 210.65625 292.65625 213.226562 C 290.355469 215.796875 287.550781 217.824219 284.238281 219.3125 C 280.992188 220.800781 277.375 221.542969 273.386719 221.542969 C 269.394531 221.542969 265.746094 220.800781 262.433594 219.3125 C 259.1875 217.824219 256.378906 215.796875 254.015625 213.226562 C 251.714844 210.65625 249.921875 207.648438 248.636719 204.199219 C 247.355469 200.683594 246.710938 196.933594 246.710938 192.941406 C 246.710938 188.953125 247.355469 185.234375 248.636719 181.785156 C 249.921875 178.269531 251.714844 175.226562 254.015625 172.660156 C 256.378906 170.089844 259.1875 168.0625 262.433594 166.574219 C 265.746094 165.085938 269.394531 164.34375 273.386719 164.34375 Z M 273.386719 179.554688 C 271.628906 179.554688 270.074219 179.925781 268.71875 180.671875 C 267.367188 181.347656 266.21875 182.292969 265.273438 183.511719 C 264.394531 184.726562 263.71875 186.148438 263.242188 187.769531 C 262.769531 189.394531 262.535156 191.117188 262.535156 192.941406 C 262.535156 194.769531 262.769531 196.492188 263.242188 198.113281 C 263.71875 199.738281 264.394531 201.15625 265.273438 202.375 C 266.21875 203.59375 267.367188 204.574219 268.71875 205.316406 C 270.074219 205.992188 271.628906 206.332031 273.386719 206.332031 C 275.144531 206.332031 276.699219 205.992188 278.050781 205.316406 C 279.402344 204.574219 280.519531 203.59375 281.398438 202.375 C 282.34375 201.15625 283.054688 199.738281 283.527344 198.113281 C 284 196.492188 284.238281 194.769531 284.238281 192.941406 C 284.238281 191.117188 284 189.394531 283.527344 187.769531 C 283.054688 186.148438 282.34375 184.726562 281.398438 183.511719 C 280.519531 182.292969 279.402344 181.347656 278.050781 180.671875 C 276.699219 179.925781 275.144531 179.554688 273.386719 179.554688 Z M 305.199219 212.3125 L 305.199219 150.042969 C 305.199219 147.742188 305.90625 145.816406 307.328125 144.261719 C 308.816406 142.636719 310.742188 141.828125 313.109375 141.828125 C 315.476562 141.828125 317.367188 142.636719 318.789062 144.261719 C 320.277344 145.816406 321.019531 147.742188 321.019531 150.042969 L 321.019531 183.714844 L 333.902344 170.832031 C 335.253906 169.480469 336.570312 168.230469 337.855469 167.082031 C 339.207031 165.929688 340.863281 165.355469 342.824219 165.355469 C 345.191406 165.355469 347.050781 166.101562 348.402344 167.585938 C 349.824219 169.007812 350.535156 170.699219 350.535156 172.660156 C 350.535156 174.078125 350.058594 175.363281 349.113281 176.511719 C 348.234375 177.664062 346.847656 179.148438 344.957031 180.976562 L 336.4375 189.394531 L 349.722656 206.230469 C 350.535156 207.242188 351.34375 208.394531 352.15625 209.675781 C 353.035156 210.894531 353.476562 212.078125 353.476562 213.226562 C 353.476562 213.972656 353.304688 214.78125 352.96875 215.660156 C 352.699219 216.539062 352.222656 217.351562 351.546875 218.09375 C 350.9375 218.773438 350.128906 219.347656 349.113281 219.820312 C 348.167969 220.292969 347.015625 220.53125 345.664062 220.53125 C 343.839844 220.53125 342.351562 220.15625 341.203125 219.414062 C 340.121094 218.671875 338.734375 217.25 337.042969 215.152344 L 321.222656 194.464844 L 321.019531 194.464844 L 321.019531 212.3125 C 321.019531 214.613281 320.277344 216.574219 318.789062 218.195312 C 317.367188 219.75 315.476562 220.53125 313.109375 220.53125 C 310.742188 220.53125 308.816406 219.75 307.328125 218.195312 C 305.90625 216.574219 305.199219 214.613281 305.199219 212.3125 Z M 355.605469 212.3125 L 355.605469 173.570312 C 355.605469 171.273438 356.316406 169.34375 357.734375 167.789062 C 359.222656 166.167969 361.148438 165.355469 363.515625 165.355469 C 365.882812 165.355469 367.773438 166.167969 369.195312 167.789062 C 370.683594 169.34375 371.425781 171.273438 371.425781 173.570312 L 371.425781 212.3125 C 371.425781 214.613281 370.683594 216.574219 369.195312 218.195312 C 367.773438 219.75 365.882812 220.53125 363.515625 220.53125 C 361.148438 220.53125 359.222656 219.75 357.734375 218.195312 C 356.316406 216.574219 355.605469 214.613281 355.605469 212.3125 Z M 354.082031 151.257812 C 354.082031 149.90625 354.320312 148.6875 354.792969 147.605469 C 355.335938 146.457031 356.011719 145.445312 356.820312 144.566406 C 357.699219 143.6875 358.714844 143.007812 359.863281 142.535156 C 361.015625 142.0625 362.230469 141.828125 363.515625 141.828125 C 364.800781 141.828125 366.015625 142.0625 367.167969 142.535156 C 368.316406 143.007812 369.296875 143.6875 370.109375 144.566406 C 370.988281 145.445312 371.664062 146.457031 372.136719 147.605469 C 372.675781 148.6875 372.949219 149.90625 372.949219 151.257812 C 372.949219 152.542969 372.675781 153.761719 372.136719 154.910156 C 371.664062 156.058594 370.988281 157.074219 370.109375 157.953125 C 369.296875 158.832031 368.316406 159.507812 367.167969 159.980469 C 366.015625 160.453125 364.800781 160.691406 363.515625 160.691406 C 362.230469 160.691406 361.015625 160.453125 359.863281 159.980469 C 358.714844 159.507812 357.699219 158.832031 356.820312 157.953125 C 356.011719 157.074219 355.335938 156.058594 354.792969 154.910156 C 354.320312 153.761719 354.082031 152.542969 354.082031 151.257812 Z M 354.082031 151.257812 " fill-opacity="1" fill-rule="nonzero"/></svg>