<svg xmlns="http://www.w3.org/2000/svg" width="100" height="110" viewBox="0 0 100 110" preserveAspectRatio="xMidYMid meet">
  <path fill="#ffffff" d="M 59.070312 14 L 27.476562 14 C 20.023438 14 13.976562 20.046875 13.976562 27.5 L 13.976562 47.722656 L 0.0117188 47.722656 L 0.0117188 61.6875 L 0.0117188 27.5 C 0.0117188 12.332031 12.308594 0.035156 27.476562 0.035156 L 59.070312 0.035156 C 76.09375 0.035156 89.894531 13.835938 89.894531 30.859375 C 89.894531 38.777344 86.910156 45.996094 82.003906 51.457031 C 91.597656 56.679688 98.109375 66.851562 98.109375 78.546875 C 98.109375 95.570312 84.308594 109.371094 67.285156 109.371094 L 29.988281 109.371094 C 13.433594 109.371094 0.0117188 95.949219 0.0117188 79.394531 L 0.0117188 61.6875 L 13.976562 61.6875 L 13.976562 79.394531 C 13.976562 88.238281 21.144531 95.40625 29.988281 95.40625 L 67.285156 95.40625 C 76.59375 95.40625 84.144531 87.855469 84.144531 78.546875 C 84.144531 69.234375 76.59375 61.6875 67.285156 61.6875 L 21.890625 61.6875 L 21.890625 47.722656 L 59.070312 47.722656 C 68.382812 47.722656 75.929688 40.171875 75.929688 30.859375 C 75.929688 21.550781 68.382812 14 59.070312 14 Z" fill-opacity="1" fill-rule="evenodd"/>
  <path fill="#ffffff" d="M 62.003906 79.054688 C 62.003906 79.480469 61.960938 79.902344 61.878906 80.320312 C 61.796875 80.734375 61.671875 81.140625 61.511719 81.53125 C 61.347656 81.925781 61.148438 82.296875 60.914062 82.652344 C 60.675781 83.003906 60.410156 83.332031 60.109375 83.632812 C 59.808594 83.933594 59.480469 84.199219 59.128906 84.4375 C 58.773438 84.671875 58.402344 84.871094 58.007812 85.035156 C 57.617188 85.199219 57.210938 85.320312 56.792969 85.402344 C 56.378906 85.484375 55.957031 85.527344 55.53125 85.527344 C 55.105469 85.527344 54.6875 85.484375 54.269531 85.402344 C 53.851562 85.320312 53.449219 85.199219 53.054688 85.035156 C 52.664062 84.871094 52.289062 84.671875 51.9375 84.4375 C 51.582031 84.199219 51.257812 83.933594 50.957031 83.632812 C 50.65625 83.332031 50.386719 83.003906 50.152344 82.652344 C 49.914062 82.296875 49.714844 81.925781 49.554688 81.53125 C 49.390625 81.140625 49.269531 80.734375 49.183594 80.320312 C 49.101562 79.902344 49.0625 79.480469 49.0625 79.054688 C 49.0625 78.632812 49.101562 78.210938 49.183594 77.792969 C 49.269531 77.375 49.390625 76.972656 49.554688 76.578125 C 49.714844 76.1875 49.914062 75.8125 50.152344 75.460938 C 50.386719 75.109375 50.65625 74.78125 50.957031 74.480469 C 51.257812 74.179688 51.582031 73.910156 51.9375 73.675781 C 52.289062 73.4375 52.664062 73.238281 53.054688 73.078125 C 53.449219 72.914062 53.851562 72.792969 54.269531 72.710938 C 54.6875 72.625 55.105469 72.585938 55.53125 72.585938 C 55.957031 72.585938 56.378906 72.625 56.792969 72.710938 C 57.210938 72.792969 57.617188 72.914062 58.007812 73.078125 C 58.402344 73.238281 58.773438 73.4375 59.128906 73.675781 C 59.480469 73.910156 59.808594 74.179688 60.109375 74.480469 C 60.410156 74.78125 60.675781 75.109375 60.914062 75.460938 C 61.148438 75.8125 61.347656 76.1875 61.511719 76.578125 C 61.671875 76.972656 61.796875 77.375 61.878906 77.792969 C 61.960938 78.210938 62.003906 78.632812 62.003906 79.054688 Z" fill-opacity="1" fill-rule="nonzero"/>
</svg>
